<svg xmlns="http://www.w3.org/2000/svg" width="26" height="26" viewBox="0 0 26 26" fill="none">
  <path d="M5.29751 21.3444C5.45189 21.1819 5.45189 20.93 5.29751 20.7675C5.14314 20.605 4.88314 20.605 4.72064 20.7675C4.56626 20.9219 4.56626 21.1819 4.72064 21.3444C4.87501 21.4988 5.13501 21.4988 5.29751 21.3444Z" fill="white"/>
  <path d="M13.0488 1.23499C8.62065 1.23499 4.58253 3.72936 2.56753 7.63749L2.37253 7.17436C2.29128 6.96311 2.04753 6.87374 1.8444 6.95499C1.64128 7.04436 1.53565 7.27999 1.62503 7.48311L2.1694 8.79936C2.2344 8.95373 2.38878 9.05124 2.54315 9.05124C2.5919 9.05124 2.64878 9.04311 2.69753 9.01874L3.9244 8.51498C4.12753 8.42561 4.23315 8.18998 4.14378 7.98686C4.06253 7.77561 3.81878 7.68624 3.61565 7.76749L3.36378 7.87311C5.2569 4.31436 8.98628 2.04749 13.0488 2.04749C19.0938 2.04749 24.0175 6.97124 24.0175 13.0162C24.0175 17.4362 21.385 21.4012 17.3144 23.1237C17.1113 23.2131 17.0138 23.4487 17.1032 23.66C17.1682 23.8144 17.3144 23.9119 17.4769 23.9119C17.5338 23.9119 17.5825 23.9037 17.6313 23.8794C22.0025 22.0269 24.83 17.7694 24.83 13.0244C24.83 6.53249 19.5488 1.24311 13.0488 1.24311" fill="white"/>
  <path d="M22.3925 13.0162C22.3925 7.86499 18.2 3.67249 13.0488 3.67249C8.96189 3.67249 5.38689 6.28061 4.14377 10.1725C4.13564 10.1725 4.11939 10.1725 4.11127 10.1725C2.54314 10.1725 1.26752 11.4481 1.26752 13.0162C1.26752 15.5837 2.08002 18.0212 3.61564 20.0687C3.75377 20.2475 4.00564 20.2881 4.18439 20.15C4.36314 20.0119 4.40377 19.76 4.26564 19.5812C2.83564 17.6719 2.08002 15.405 2.08002 13.0162C2.08002 11.895 2.99002 10.985 4.11127 10.985C5.23252 10.985 6.14252 11.895 6.14252 13.0162C6.14252 14.0237 5.38689 14.8931 4.38752 15.0312C4.27377 15.0475 4.16814 15.1125 4.10314 15.21C4.03814 15.3075 4.02189 15.4294 4.05439 15.5431C4.93189 18.6631 7.41002 21.1412 10.53 22.0187C10.6438 22.0512 10.7656 22.035 10.8631 21.97C10.9606 21.905 11.0256 21.7994 11.0419 21.6856C11.18 20.6862 12.0413 19.9306 13.0569 19.9306C14.1781 19.9306 15.0881 20.8406 15.0881 21.9619C15.0881 23.0831 14.1781 23.9931 13.0569 23.9931C10.6681 23.9931 8.40127 23.2375 6.49189 21.8075C6.31314 21.6775 6.06127 21.71 5.92314 21.8887C5.78502 22.0675 5.82564 22.3194 6.00439 22.4575C8.05189 23.9931 10.4975 24.8056 13.0569 24.8056C14.625 24.8056 15.9006 23.53 15.9006 21.9619C15.9006 21.9537 15.9006 21.9375 15.9006 21.9294C19.7925 20.6862 22.4006 17.1194 22.4006 13.0244M15.7544 21.1169C15.3888 19.9631 14.3244 19.1181 13.0569 19.1181C11.7894 19.1181 10.7088 19.9469 10.3431 21.1169C7.82439 20.2719 5.81752 18.265 4.97252 15.7462C6.13439 15.3806 6.97127 14.2837 6.97127 13.0325C6.97127 11.7812 6.12627 10.6925 4.97252 10.335C6.13439 6.84124 9.36814 4.50124 13.065 4.50124C17.7694 4.50124 21.5963 8.32811 21.5963 13.0325C21.5963 16.7294 19.2563 19.955 15.7625 21.125" fill="white"/>
  <path d="M9.79877 10.985H8.17377C7.94627 10.985 7.76752 11.1637 7.76752 11.3912C7.76752 11.6187 7.94627 11.7975 8.17377 11.7975H9.39252V12.61H8.17377C7.94627 12.61 7.76752 12.7887 7.76752 13.0162V14.6412C7.76752 14.8687 7.94627 15.0475 8.17377 15.0475H9.79877C10.0263 15.0475 10.205 14.8687 10.205 14.6412C10.205 14.4137 10.0263 14.235 9.79877 14.235H8.58002V13.4225H9.79877C10.0263 13.4225 10.205 13.2437 10.205 13.0162V11.3912C10.205 11.1637 10.0263 10.985 9.79877 10.985Z" fill="white"/>
  <path d="M13.0488 10.985C12.8213 10.985 12.6425 11.1637 12.6425 11.3912V12.61H11.83V11.3912C11.83 11.1637 11.6513 10.985 11.4238 10.985C11.1963 10.985 11.0175 11.1637 11.0175 11.3912V13.0162C11.0175 13.2437 11.1963 13.4225 11.4238 13.4225H12.6425V14.6412C12.6425 14.8687 12.8213 15.0475 13.0488 15.0475C13.2763 15.0475 13.455 14.8687 13.455 14.6412V11.3912C13.455 11.1637 13.2763 10.985 13.0488 10.985Z" fill="white"/>
  <path d="M15.5837 9.36807C15.3644 9.3112 15.145 9.44932 15.0881 9.66057L13.4631 16.1606C13.4062 16.3799 13.5444 16.5993 13.7556 16.6562C13.7881 16.6562 13.8206 16.6643 13.8531 16.6643C14.0319 16.6643 14.2025 16.5424 14.2512 16.3556L15.8762 9.85557C15.9331 9.6362 15.795 9.41682 15.5837 9.35995" fill="white"/>
  <path d="M17.9238 10.985H16.2988C16.0713 10.985 15.8925 11.1637 15.8925 11.3912C15.8925 11.6187 16.0713 11.7975 16.2988 11.7975H17.4038L16.7213 14.5437C16.6644 14.7631 16.8025 14.9825 17.0138 15.0394C17.0463 15.0394 17.0788 15.0475 17.1113 15.0475C17.29 15.0475 17.4606 14.9256 17.5094 14.7387L18.3219 11.4887C18.3544 11.3669 18.3219 11.2369 18.2488 11.1394C18.1756 11.0419 18.0538 10.985 17.9319 10.985" fill="white"/>
  <path d="M13.0488 4.94812C12.8213 4.94812 12.6425 5.12687 12.6425 5.35437V6.45125C12.6425 6.67875 12.8213 6.85749 13.0488 6.85749C13.2763 6.85749 13.455 6.67875 13.455 6.45125V5.35437C13.455 5.12687 13.2763 4.94812 13.0488 4.94812Z" fill="white"/>
  <path d="M20.7106 12.61H19.6138C19.3863 12.61 19.2075 12.7887 19.2075 13.0162C19.2075 13.2437 19.3863 13.4225 19.6138 13.4225H20.7106C20.9381 13.4225 21.1169 13.2437 21.1169 13.0162C21.1169 12.7887 20.9381 12.61 20.7106 12.61Z" fill="white"/>
  <path d="M16.1281 7.67813C16.1931 7.71063 16.2663 7.735 16.3313 7.735C16.4694 7.735 16.6075 7.66188 16.6806 7.53188L17.225 6.58125C17.3388 6.38625 17.2738 6.1425 17.0788 6.02875C16.8838 5.915 16.64 5.98 16.5263 6.175L15.9819 7.12563C15.8681 7.32063 15.9331 7.56438 16.1281 7.67813Z" fill="white"/>
  <path d="M9.96938 18.3463C9.77438 18.2325 9.53063 18.2975 9.41688 18.4925L8.8725 19.4431C8.75875 19.6381 8.82375 19.8819 9.01875 19.9956C9.08375 20.0363 9.15688 20.0525 9.22188 20.0525C9.36 20.0525 9.49813 19.9794 9.57125 19.8494L10.1156 18.8988C10.2294 18.7038 10.1644 18.46 9.96938 18.3463Z" fill="white"/>
  <path d="M19.89 16.4938L18.9394 15.9494C18.7444 15.8357 18.5007 15.9007 18.3869 16.0957C18.2732 16.2907 18.3382 16.5425 18.5332 16.6482L19.4838 17.1925C19.5488 17.2332 19.6219 17.2494 19.6869 17.2494C19.825 17.2494 19.9632 17.1763 20.0363 17.0463C20.15 16.8513 20.085 16.6075 19.89 16.4938Z" fill="white"/>
  <path d="M7.57252 9.3844L6.6219 8.84003C6.4269 8.72628 6.18315 8.79128 6.0694 8.98628C5.95565 9.18128 6.02065 9.42503 6.21565 9.53878L7.16627 10.0832C7.23127 10.1238 7.3044 10.14 7.3694 10.14C7.50752 10.14 7.64565 10.0669 7.71878 9.9369C7.83253 9.7419 7.76752 9.49003 7.57252 9.3844Z" fill="white"/>
  <path d="M18.7363 10.14C18.8013 10.14 18.8744 10.1238 18.9394 10.0832L19.89 9.53878C20.085 9.42503 20.15 9.18128 20.0363 8.98628C19.9225 8.79128 19.6707 8.72628 19.4838 8.84003L18.5332 9.3844C18.3382 9.49815 18.2732 9.7419 18.3869 9.9369C18.46 10.0669 18.5982 10.14 18.7363 10.14Z" fill="white"/>
  <path d="M7.16627 15.9494L6.21565 16.4938C6.02065 16.6075 5.95565 16.8513 6.0694 17.0463C6.14252 17.1763 6.28065 17.2494 6.41878 17.2494C6.48378 17.2494 6.5569 17.2332 6.6219 17.1925L7.57252 16.6482C7.76752 16.5344 7.83253 16.2907 7.71878 16.0957C7.60503 15.9007 7.35315 15.8357 7.16627 15.9494Z" fill="white"/>
  <path d="M16.6887 18.5007C16.575 18.3057 16.3231 18.2407 16.1362 18.3544C15.9494 18.4682 15.8762 18.7119 15.99 18.9069L16.5344 19.8576C16.6075 19.9876 16.7456 20.0607 16.8837 20.0607C16.9569 20.0607 17.0219 20.0444 17.0869 20.0038C17.2819 19.8901 17.3469 19.6463 17.2331 19.4513L16.6887 18.5007Z" fill="white"/>
  <path d="M9.41688 7.53188C9.49 7.66188 9.62813 7.735 9.76625 7.735C9.83125 7.735 9.90438 7.71875 9.96938 7.67813C10.1644 7.56438 10.2294 7.32063 10.1156 7.12563L9.57125 6.175C9.4575 5.98 9.21375 5.915 9.01875 6.02875C8.82375 6.1425 8.75875 6.38625 8.8725 6.58125L9.41688 7.53188Z" fill="white"/>
</svg>