<svg xmlns="http://www.w3.org/2000/svg" width="26" height="26" viewBox="0 0 26 26" fill="none">
  <path d="M15.1667 2.16663H6.50001C5.92537 2.16663 5.37427 2.3949 4.96795 2.80123C4.56162 3.20756 4.33334 3.75866 4.33334 4.33329V21.6666C4.33334 22.2413 4.56162 22.7924 4.96795 23.1987C5.37427 23.605 5.92537 23.8333 6.50001 23.8333H19.5C20.0746 23.8333 20.6257 23.605 21.0321 23.1987C21.4384 22.7924 21.6667 22.2413 21.6667 21.6666V8.66663L15.1667 2.16663Z" stroke="white" stroke-width="1.4" stroke-linecap="round" stroke-linejoin="round"/>
  <path d="M17.3333 18.4166H8.66666" stroke="white" stroke-width="1.4" stroke-linecap="round" stroke-linejoin="round"/>
  <path d="M17.3333 14.0834H8.66666" stroke="white" stroke-width="1.4" stroke-linecap="round" stroke-linejoin="round"/>
  <path d="M10.8333 9.75H9.74999H8.66666" stroke="white" stroke-width="1.4" stroke-linecap="round" stroke-linejoin="round"/>
  <path d="M15.1667 2.16663V8.66663H21.6667" stroke="white" stroke-width="1.4" stroke-linecap="round" stroke-linejoin="round"/>
</svg>